<svg width="64" height="64" viewBox="0 0 64 64" fill="none" xmlns="http://www.w3.org/2000/svg">
<path d="M0 32C0 14.3269 14.3269 0 32 0C49.6731 0 64 14.3269 64 32C64 49.6731 49.6731 64 32 64C14.3269 64 0 49.6731 0 32Z" fill="#21252B"/>
<path d="M8 32C8 18.7452 18.7452 8 32 8C45.2548 8 56 18.7452 56 32C56 45.2548 45.2548 56 32 56C18.7452 56 8 45.2548 8 32Z" fill="#282C34"/>
<path d="M42 22H22C19.7909 22 18 23.7909 18 26V38C18 40.2091 19.7909 42 22 42H42C44.2091 42 46 40.2091 46 38V26C46 23.7909 44.2091 22 42 22Z" fill="#38BDF8"/>
<path d="M40 26H24C22.8954 26 22 26.8954 22 28V36C22 37.1046 22.8954 38 24 38H40C41.1046 38 42 37.1046 42 36V28C42 26.8954 41.1046 26 40 26Z" fill="white"/>
</svg>
