<svg width="64" height="64" viewBox="0 0 64 64" fill="none" xmlns="http://www.w3.org/2000/svg">
<path d="M0 32C0 14.3269 14.3269 0 32 0C49.6731 0 64 14.3269 64 32C64 49.6731 49.6731 64 32 64C14.3269 64 0 49.6731 0 32Z" fill="#21252B"/>
<path d="M8 32C8 18.7452 18.7452 8 32 8C45.2548 8 56 18.7452 56 32C56 45.2548 45.2548 56 32 56C18.7452 56 8 45.2548 8 32Z" fill="#282C34"/>
<path d="M38 20H26C22.6863 20 20 22.6863 20 26V38C20 41.3137 22.6863 44 26 44H38C41.3137 44 44 41.3137 44 38V26C44 22.6863 41.3137 20 38 20Z" fill="#A3E635"/>
<path d="M32 26V34" stroke="white" stroke-width="2.5" stroke-linecap="round"/>
<path d="M28 34H36" stroke="white" stroke-width="2.5" stroke-linecap="round"/>
</svg>
