<svg width="181" height="40" viewBox="0 0 181 40" fill="none" xmlns="http://www.w3.org/2000/svg">
<g clip-path="url(#clip0_4_59)">
<path d="M162.074 39.2534H157.061V13.1734H161.594L162.128 17.1734C162.945 15.68 164.119 14.5245 165.647 13.7067C167.212 12.8534 168.918 12.4267 170.767 12.4267C174.109 12.4267 176.616 13.3867 178.287 15.3067C179.958 17.1911 180.793 19.8578 180.793 23.3067V39.2534H175.78V24.4267C175.78 19.4845 173.682 17.0134 169.487 17.0134C167.176 17.0134 165.363 17.7778 164.047 19.3067C162.732 20.8356 162.074 22.88 162.074 25.44V39.2534Z" fill="white"/>
<path d="M138.343 39.8934C134.503 39.8934 131.374 38.6311 128.956 36.1067C126.574 33.5823 125.383 30.2934 125.383 26.24C125.383 22.1511 126.557 18.8267 128.903 16.2667C131.285 13.7067 134.361 12.4267 138.129 12.4267C141.827 12.4267 144.796 13.6 147.035 15.9467C149.275 18.2934 150.395 21.4045 150.395 25.28V27.1467L130.236 27.2C130.414 29.9378 131.196 32.0534 132.583 33.5467C134.005 35.0045 135.96 35.7334 138.449 35.7334C142.431 35.7334 144.867 34.2045 145.756 31.1467H150.449C149.809 33.9556 148.44 36.1245 146.342 37.6534C144.244 39.1467 141.578 39.8934 138.343 39.8934ZM138.129 16.64C135.96 16.64 134.201 17.2623 132.85 18.5067C131.499 19.7511 130.663 21.5289 130.343 23.84H145.382C145.382 21.6711 144.724 19.9289 143.409 18.6134C142.093 17.2978 140.334 16.64 138.129 16.64Z" fill="white"/>
<path d="M118.532 6.02668C117.892 6.66668 117.11 6.98668 116.185 6.98668C115.261 6.98668 114.479 6.66668 113.839 6.02668C113.199 5.35113 112.879 4.5689 112.879 3.68002C112.879 2.75557 113.199 1.97335 113.839 1.33335C114.479 0.693352 115.261 0.373352 116.185 0.373352C117.11 0.373352 117.892 0.693352 118.532 1.33335C119.172 1.97335 119.492 2.75557 119.492 3.68002C119.492 4.5689 119.172 5.35113 118.532 6.02668ZM113.732 39.2533V13.1733H118.745V39.2533H113.732Z" fill="white"/>
<path d="M91.1411 39.8933C87.408 39.8933 84.4393 38.6489 82.235 36.16C80.0662 33.6356 78.9818 30.3467 78.9818 26.2933C78.9818 22.2044 80.084 18.88 82.2883 16.32C84.5282 13.7244 87.5502 12.4267 91.3545 12.4267C93.381 12.4267 95.1765 12.8533 96.7408 13.7067C98.3407 14.56 99.5851 15.7867 100.474 17.3867V0H105.434V39.2533H100.954L100.527 34.5067C99.674 36.2489 98.4296 37.5822 96.7941 38.5067C95.1587 39.4311 93.2744 39.8933 91.1411 39.8933ZM86.1814 32.8C87.6391 34.5067 89.6301 35.36 92.1544 35.36C94.6787 35.36 96.6875 34.5067 98.1807 32.8C99.674 31.0933 100.421 28.8711 100.421 26.1333C100.421 23.4311 99.674 21.2267 98.1807 19.52C96.6875 17.8133 94.6787 16.96 92.1544 16.96C89.6301 16.96 87.6391 17.8133 86.1814 19.52C84.7593 21.1911 84.0482 23.3956 84.0482 26.1333C84.0482 28.8711 84.7593 31.0933 86.1814 32.8Z" fill="white"/>
<path d="M0 26.24C0 22.1511 1.17327 18.8267 3.5198 16.2667C5.90189 13.7067 8.99505 12.4267 12.7993 12.4267C16.0702 12.4267 18.7723 13.2978 20.9055 15.04C23.0743 16.7467 24.3898 19.0578 24.8519 21.9734H19.8389C19.4123 20.3378 18.5767 19.0934 17.3324 18.24C16.1235 17.3511 14.6658 16.9067 12.9593 16.9067C10.5772 16.9067 8.63952 17.76 7.14627 19.4667C5.68857 21.1378 4.95972 23.3778 4.95972 26.1867C4.95972 28.9956 5.65302 31.2356 7.03961 32.9067C8.46175 34.5778 10.3639 35.4134 12.746 35.4134C14.5236 35.4134 16.0347 34.9867 17.279 34.1334C18.559 33.2445 19.43 32.0178 19.8922 30.4534H24.9053C24.4075 33.2978 23.0387 35.5911 20.7988 37.3334C18.559 39.04 15.8747 39.8934 12.746 39.8934C8.90617 39.8934 5.81301 38.6489 3.46647 36.16C1.15549 33.6711 0 30.3645 0 26.24Z" fill="white"/>
<path d="M65.1959 28.3043L53.4164 16.6271H61.1323L72.8601 28.3043L61.1323 39.9301H53.4164L65.1959 28.3043Z" fill="#1586FF"/>
<path d="M51.0061 39.9301H43.3415L31.6136 28.3043L43.3415 16.6271H51.0061L39.278 28.3043L51.0061 39.9301Z" fill="#1586FF"/>
</g>
<defs>
<clipPath id="clip0_4_59">
<rect width="181" height="40" fill="white"/>
</clipPath>
</defs>
</svg>
